<?xml version="1.0" standalone="no"?><!DOCTYPE svg PUBLIC "-//W3C//DTD SVG 1.1//EN" "http://www.w3.org/Graphics/SVG/1.1/DTD/svg11.dtd"><svg t="1650949096934" class="icon" viewBox="0 0 1024 1024" version="1.1" xmlns="http://www.w3.org/2000/svg" p-id="9596" xmlns:xlink="http://www.w3.org/1999/xlink" width="200" height="200"><defs><style type="text/css"></style></defs><path d="M416 152h-16a8 8 0 0 1 0-16h16a8 8 0 0 1 0 16zM624 152H448a8 8 0 0 1 0-16h176a8 8 0 0 1 0 16zM624 904h-16a8 8 0 0 1 0-16h16a8 8 0 0 1 0 16zM576 904H400a8 8 0 0 1 0-16h176a8 8 0 0 1 0 16zM804 728a8 8 0 0 1-8-8V336a8 8 0 0 1 16 0v384a8 8 0 0 1-8 8z" fill="#263238" p-id="9597"></path><path d="M188 200.4m-96 0a96 96 0 1 0 192 0 96 96 0 1 0-192 0Z" fill="#FF5252" p-id="9598"></path><path d="M188 304.4c-57.344 0-104-46.656-104-104s46.656-104 104-104 104 46.656 104 104-46.656 104-104 104z m0-192c-48.512 0-88 39.488-88 88s39.488 88 88 88 88-39.488 88-88-39.488-88-88-88z" fill="#263238" p-id="9599"></path><path d="M188 520.4m-96 0a96 96 0 1 0 192 0 96 96 0 1 0-192 0Z" fill="#FFD740" p-id="9600"></path><path d="M188 624.4c-57.344 0-104-46.656-104-104s46.656-104 104-104 104 46.656 104 104-46.656 104-104 104z m0-192c-48.512 0-88 39.488-88 88s39.488 88 88 88 88-39.488 88-88-39.488-88-88-88zM188 944.4c-57.344 0-104-46.656-104-104s46.656-104 104-104 104 46.656 104 104-46.656 104-104 104z m0-192c-48.512 0-88 39.488-88 88s39.488 88 88 88 88-39.488 88-88-39.488-88-88-88zM652 208.4h-320a8 8 0 0 1 0-16h320a8 8 0 0 1 0 16z" fill="#263238" p-id="9601"></path><path d="M492 848.4h-160a8 8 0 0 1 0-16h152v-632a8 8 0 0 1 16 0v640a8 8 0 0 1-8 8z" fill="#263238" p-id="9602"></path><path d="M492 528.4h-160a8 8 0 0 1 0-16h160a8 8 0 0 1 0 16z" fill="#263238" p-id="9603"></path><path d="M804 840m-120 0a120 120 0 1 0 240 0 120 120 0 1 0-240 0Z" fill="#4DB6AC" p-id="9604"></path><path d="M804 520m-120 0a120 120 0 1 0 240 0 120 120 0 1 0-240 0Z" fill="#FFFFFF" p-id="9605"></path><path d="M804 648c-70.576 0-128-57.424-128-128s57.424-128 128-128 128 57.424 128 128-57.424 128-128 128z m0-240c-61.744 0-112 50.256-112 112s50.256 112 112 112 112-50.256 112-112-50.256-112-112-112z" fill="#263238" p-id="9606"></path><path d="M781.376 885.248a8.032 8.032 0 0 1-5.664-2.336l-45.248-45.248a8 8 0 0 1 11.312-11.312l39.6 39.6 79.184-79.184a8 8 0 0 1 11.312 11.312l-84.848 84.848a8.016 8.016 0 0 1-5.648 2.32z" fill="#263238" p-id="9607"></path><path d="M804 528h-80a8 8 0 0 1 0-16h72v-72a8 8 0 0 1 16 0v80a8 8 0 0 1-8 8z" fill="#263238" p-id="9608"></path><path d="M818.288 344h-28.56a24.112 24.112 0 0 1-23.584-19.264l-2.912-15.152a116.928 116.928 0 0 1-34.336-19.776l-14.976 5.168a24.128 24.128 0 0 1-28.48-10.688l-14.208-24.4a24.064 24.064 0 0 1 4.976-30.144l11.808-10.08c-1.152-6.592-1.728-13.184-1.728-19.664s0.576-13.056 1.728-19.648l-11.792-10.096a24.016 24.016 0 0 1-4.976-30.144l14.192-24.4a24.24 24.24 0 0 1 28.48-10.704l14.96 5.216a116.352 116.352 0 0 1 34.352-19.808l2.896-15.152A24.112 24.112 0 0 1 789.712 56h28.544c11.424 0 21.344 8.112 23.6 19.264l2.912 15.152a116.528 116.528 0 0 1 34.336 19.776l14.976-5.168a24.144 24.144 0 0 1 28.48 10.688l14.208 24.4c5.76 9.904 3.664 22.576-4.976 30.144l-11.808 10.08c1.152 6.592 1.728 13.184 1.728 19.664s-0.576 13.056-1.728 19.648l11.792 10.096c8.656 7.568 10.752 20.24 4.976 30.144l-14.192 24.4a24.208 24.208 0 0 1-28.48 10.704l-14.96-5.2a116.368 116.368 0 0 1-34.336 19.792l-2.912 15.152a24.128 24.128 0 0 1-23.584 19.264z m-88.352-71.904c1.936 0 3.872 0.704 5.376 2.08a100.912 100.912 0 0 0 38.16 21.984 8.016 8.016 0 0 1 5.632 7.648v5.008l2.736 12.768a8.048 8.048 0 0 0 7.888 6.416h28.56a8.048 8.048 0 0 0 7.888-6.416l2.896-14.336-0.16-3.44c0-3.504 2.288-6.592 5.632-7.648a100.48 100.48 0 0 0 38.144-21.984 7.952 7.952 0 0 1 9.376-1.008l4.48 2.576 12.624 4.08a8.16 8.16 0 0 0 9.552-3.6l14.208-24.4a7.952 7.952 0 0 0-1.664-10.016l-11.024-9.632-3.168-1.648a8.016 8.016 0 0 1-3.824-8.688c1.664-7.328 2.48-14.688 2.48-21.84s-0.832-14.512-2.48-21.84a8 8 0 0 1 3.84-8.688l4.416-2.528 9.776-8.736a8 8 0 0 0 1.664-10.016l-14.224-24.4a8.032 8.032 0 0 0-9.552-3.584l-14.064 4.704-3.04 1.936a8.048 8.048 0 0 1-9.376-1.008 100.48 100.48 0 0 0-38.144-21.984 8.016 8.016 0 0 1-5.632-7.648V91.2l-2.736-12.784a8.08 8.08 0 0 0-7.904-6.416h-28.544a8.048 8.048 0 0 0-7.888 6.416l-2.896 14.352 0.16 3.424a8.032 8.032 0 0 1-5.632 7.648 100.912 100.912 0 0 0-38.16 21.984 8 8 0 0 1-9.36 1.008l-4.48-2.576-12.624-4.08a8.08 8.08 0 0 0-9.552 3.6l-14.208 24.4a7.952 7.952 0 0 0 1.664 10.016l11.04 9.648 3.136 1.632a8 8 0 0 1 3.84 8.688c-1.664 7.328-2.48 14.688-2.48 21.84s0.832 14.512 2.48 21.84a8.016 8.016 0 0 1-3.824 8.688l-4.432 2.544-9.776 8.72a8 8 0 0 0-1.664 10.016l14.224 24.4a8.032 8.032 0 0 0 9.552 3.584l14.064-4.704 3.04-1.936a7.856 7.856 0 0 1 3.984-1.056z m74.496-8.096c-35.296 0-64-28.704-64-64s28.704-64 64-64 64 28.704 64 64-28.704 64-64 64z m0-112c-26.464 0-48 21.536-48 48s21.536 48 48 48 48-21.536 48-48-21.52-48-48-48z" fill="#263238" p-id="9609"></path></svg>